<?xml version="1.0" standalone="no"?>
<!DOCTYPE svg PUBLIC "-//W3C//DTD SVG 20010904//EN"
 "http://www.w3.org/TR/2001/REC-SVG-20010904/DTD/svg10.dtd">
<svg version="1.0" xmlns="http://www.w3.org/2000/svg"
 width="576.000000pt" height="413.000000pt" viewBox="0 0 576.000000 413.000000"
 preserveAspectRatio="xMidYMid meet">

<g transform="translate(0.000000,413.000000) scale(0.100000,-0.100000)"
fill="#f20044" stroke="none">
<path d="M2695 3499 c-150 -19 -321 -69 -460 -135 -273 -128 -533 -379 -680
-656 -305 -577 -199 -1292 258 -1747 142 -141 267 -226 467 -320 208 -97 501
-145 734 -121 511 53 938 337 1189 790 232 421 230 977 -5 1410 -155 285 -369
490 -665 639 -240 120 -567 174 -838 140z m229 -65 c3 -9 5 -48 5 -87 -1 -40
-4 -58 -6 -42 -5 30 -19 55 -33 55 -4 0 -5 -11 -2 -25 6 -33 -11 -32 -37 1
-14 18 -21 41 -21 70 l0 44 44 0 c31 0 46 -5 50 -16z m-179 -5 c4 -6 5 -13 2
-15 -7 -8 -57 7 -57 17 0 13 47 11 55 -2z m55 -20 c0 -10 -4 -19 -10 -19 -5 0
-10 12 -10 26 0 14 4 23 10 19 6 -3 10 -15 10 -26z m331 15 c114 -21 117 -24
83 -63 l-27 -32 -26 25 c-28 27 -55 33 -66 17 -3 -5 3 -16 13 -23 10 -7 24
-23 31 -35 10 -19 7 -27 -20 -57 -17 -20 -34 -48 -38 -63 -4 -14 -12 -28 -18
-30 -16 -6 -64 64 -70 102 l-5 34 43 3 c33 2 45 8 47 21 3 12 -4 20 -17 24
-23 6 -27 23 -10 40 8 8 8 13 -1 18 -6 4 -25 -9 -44 -29 -44 -46 -61 -27 -36
38 12 32 39 33 161 10z m-435 -48 c57 -27 73 -38 68 -51 -5 -11 0 -18 16 -22
17 -4 20 -11 15 -27 -4 -11 -12 -41 -18 -66 l-11 -45 -6 47 c-6 52 -30 90 -30
49 0 -19 -4 -22 -21 -18 -18 5 -20 2 -15 -21 3 -15 9 -58 13 -96 4 -51 3 -67
-5 -62 -7 4 -12 13 -12 20 0 7 -16 38 -35 70 -40 67 -43 93 -15 129 26 33 25
40 -4 33 -22 -5 -25 -3 -23 18 3 31 -17 39 -21 9 -4 -26 -12 -29 -30 -11 -19
19 -25 1 -8 -24 17 -24 22 -58 8 -58 -4 0 -35 25 -67 55 -65 60 -66 60 -82 44
-8 -8 -13 -8 -17 0 -8 12 19 25 99 46 80 22 120 18 201 -19z m734 -42 c49 -20
90 -39 90 -42 0 -11 -43 -52 -55 -52 -6 0 -22 18 -34 41 -15 27 -27 37 -33 31
-7 -7 -7 -16 0 -28 7 -12 6 -24 -2 -37 -9 -16 -8 -21 4 -25 8 -3 29 -19 46
-36 61 -60 53 -157 -14 -172 -80 -17 -121 -37 -160 -77 -62 -63 -92 -150 -94
-274 -1 -60 -3 -66 -33 -89 -38 -29 -60 -32 -50 -6 29 66 38 112 44 222 4 69
13 134 19 145 27 51 103 95 201 116 73 15 52 33 -33 27 -75 -5 -74 4 4 30 39
13 56 25 58 39 2 16 -6 21 -48 31 -28 7 -74 12 -101 12 -42 0 -49 3 -49 20 0
11 -4 20 -9 20 -11 0 -61 -58 -61 -71 0 -5 -4 -9 -10 -9 -21 0 -9 31 26 70 41
45 71 51 99 20 22 -25 55 -29 35 -5 -11 13 -10 18 6 31 18 14 17 15 -18 10
-45 -6 -52 12 -8 21 38 7 39 23 3 23 l-28 1 30 24 c40 33 69 31 175 -11z
m-1110 -53 c0 -57 16 -65 121 -62 l89 2 -24 -26 c-13 -14 -27 -41 -30 -60 -8
-43 -24 -45 -37 -5 -11 31 -39 42 -39 15 0 -25 22 -64 45 -79 15 -10 22 -26
23 -54 2 -22 -2 -43 -7 -46 -21 -13 -95 103 -121 192 -19 61 -43 57 -34 -5 l7
-48 -27 24 c-16 15 -26 35 -26 52 0 15 -3 35 -7 44 -5 16 -8 15 -22 -4 l-16
-21 -30 24 c-16 13 -28 26 -25 28 21 17 146 75 152 72 5 -3 8 -22 8 -43z m85
19 c3 -5 -3 -10 -14 -10 -12 0 -21 5 -21 10 0 6 6 10 14 10 8 0 18 -4 21 -10z
m458 -16 c3 -4 -1 -17 -10 -31 -21 -32 -4 -54 27 -35 24 14 50 16 50 2 0 -5
-9 -14 -20 -20 -23 -12 -27 -40 -6 -40 32 0 52 -121 26 -160 -9 -13 -12 -13
-21 3 -17 29 -30 20 -24 -17 5 -22 3 -36 -6 -41 -9 -6 -11 16 -6 103 4 87 3
112 -8 116 -34 13 -49 -113 -30 -254 7 -53 6 -57 -23 -88 -33 -35 -76 -43 -86
-16 -10 26 -7 87 8 144 8 30 17 78 21 105 7 58 19 83 29 66 12 -19 26 -12 26
14 0 14 4 33 9 43 6 9 13 38 16 65 6 44 13 55 28 41z m-395 -31 c-16 -2 -40
-2 -55 0 -16 2 -3 4 27 4 30 0 43 -2 28 -4z m1204 -44 c43 -28 78 -55 78 -59
0 -7 -65 -50 -76 -50 -2 0 -4 21 -4 46 0 38 -3 45 -17 42 -14 -3 -19 -15 -21
-63 -4 -73 -14 -87 -61 -83 -47 4 -51 26 -10 72 18 21 29 42 25 51 -8 21 -23
19 -36 -5 -16 -30 -37 -24 -45 12 -7 28 -3 35 26 60 19 15 40 28 48 28 8 0 50
-23 93 -51z m-1479 -38 c26 -19 47 -38 47 -42 0 -8 -75 8 -101 21 -28 16 -51
12 -47 -7 3 -17 14 -21 132 -51 39 -10 71 -23 73 -28 2 -6 -15 -17 -37 -24
-35 -12 -45 -11 -79 5 -52 23 -156 26 -156 5 0 -11 16 -17 55 -21 30 -4 63
-10 73 -14 30 -13 18 -25 -24 -25 -33 0 -40 -3 -37 -17 5 -26 52 -40 88 -26
25 9 31 8 43 -10 18 -27 41 -14 33 19 -5 20 0 28 26 44 18 11 40 20 49 20 28
0 124 -119 108 -134 -2 -3 -24 1 -47 7 -40 11 -45 10 -60 -11 -26 -34 -106
-40 -152 -12 -19 11 -54 30 -77 41 -24 11 -43 26 -43 34 0 8 -9 19 -20 25 -19
10 -20 9 -14 -14 8 -34 -3 -33 -42 5 -18 17 -37 28 -43 25 -17 -11 -13 -23 16
-50 32 -30 25 -43 -15 -27 -32 13 -102 73 -102 87 0 21 184 176 248 210 30 15
44 11 105 -35z m397 -10 c59 -40 87 -157 60 -250 -5 -18 -10 -51 -12 -73 -1
-22 -5 -41 -9 -43 -3 -3 -25 9 -47 25 -54 38 -83 97 -85 166 -1 51 1 56 36 85
20 17 37 39 37 50 0 25 -8 24 -29 -3 -31 -37 -45 -3 -25 60 5 16 37 8 74 -17z
m442 -28 c36 -37 49 -58 54 -92 7 -41 6 -43 -14 -37 -14 5 -28 0 -41 -13 -26
-26 -26 -36 -1 -61 36 -36 41 -64 19 -106 -31 -61 -21 -103 13 -52 21 32 40
15 22 -20 -7 -15 -14 -39 -14 -53 0 -14 -13 -43 -30 -65 -19 -25 -30 -51 -30
-72 0 -38 -15 -71 -40 -89 -10 -7 -25 -31 -34 -54 -24 -59 -41 -38 -38 46 l3
64 -53 58 c-54 58 -98 116 -98 127 0 3 9 6 21 6 52 0 108 58 116 121 4 24 11
39 19 39 8 0 14 -5 14 -11 0 -5 4 -8 10 -4 6 3 5 15 -2 30 -6 14 -8 28 -4 32
13 13 40 -13 48 -46 5 -17 13 -29 18 -26 18 11 10 53 -15 84 -25 29 -25 31
-10 60 8 17 15 37 15 45 0 12 7 14 30 10 23 -5 30 -3 30 9 0 17 -32 39 -50 35
-8 -2 -39 59 -40 80 0 1 8 2 18 2 10 0 39 -21 64 -47z m259 27 c22 0 6 -18
-30 -35 -22 -9 -54 -32 -72 -51 -18 -19 -37 -34 -41 -34 -4 0 -8 17 -8 39 0
30 5 42 24 54 29 20 87 37 104 31 8 -2 18 -4 23 -4z m543 -79 c26 -41 -91 -89
-161 -67 -37 12 -26 26 21 26 29 0 54 8 77 24 37 26 55 31 63 17z m126 -127
c25 -30 47 -59 48 -64 2 -6 -22 -10 -56 -10 -32 0 -79 -3 -103 -6 -44 -6 -44
-6 -63 36 -10 23 -16 42 -15 44 6 4 133 54 139 55 3 0 25 -25 50 -55z m-302
29 c50 -16 57 -22 75 -62 17 -40 18 -45 3 -53 -9 -5 -16 -17 -16 -28 0 -31
-11 -50 -31 -50 -16 0 -17 5 -12 33 11 54 9 71 -9 75 -13 2 -18 -3 -18 -18 0
-11 -7 -37 -15 -57 -15 -35 -16 -35 -35 -18 -30 27 -26 69 10 98 40 34 38 41
-10 33 -25 -4 -40 -2 -40 4 0 5 9 10 20 10 11 0 20 4 20 9 0 11 -34 20 -75 22
-26 0 -27 2 -10 9 32 14 84 11 143 -7z m-1858 -47 c0 -8 -7 -16 -15 -20 -24
-9 -6 -36 25 -36 39 0 46 -17 19 -46 -28 -30 -46 -30 -76 -2 -29 27 -29 35 2
81 26 38 45 48 45 23z m1695 2 c28 -12 38 -39 34 -84 -2 -16 0 -48 5 -72 8
-44 -3 -72 -29 -72 -6 0 -26 39 -44 86 -32 84 -52 107 -74 85 -8 -8 -7 -25 5
-63 9 -29 19 -70 23 -90 6 -36 4 -38 -20 -38 -23 0 -25 3 -25 50 0 42 -3 50
-19 50 -21 0 -31 -26 -31 -86 0 -34 -4 -43 -26 -53 -14 -6 -29 -9 -34 -6 -17
11 -23 78 -11 131 26 115 158 202 246 162z m-1510 -98 c15 -24 -45 -110 -77
-110 -5 0 -8 27 -8 60 l0 60 39 0 c22 0 42 -4 46 -10z m125 -5 c7 -8 20 -15
29 -15 13 -1 12 -4 -5 -18 -21 -18 -44 -90 -44 -138 0 -25 2 -26 36 -19 33 6
36 4 29 -12 -4 -10 -10 -26 -12 -35 -5 -16 -15 -17 -87 -12 -73 6 -83 4 -105
-15 -14 -12 -35 -24 -48 -27 -24 -6 -83 12 -83 26 0 4 -12 25 -26 46 -25 37
-26 42 -15 84 14 50 17 55 47 64 19 6 22 2 27 -51 5 -44 2 -61 -10 -75 -8 -9
-13 -25 -9 -33 10 -27 39 -12 64 33 32 57 54 68 92 45 36 -21 44 -15 30 22 -8
22 -6 36 9 69 11 22 22 49 25 59 7 21 39 22 56 2z m1963 -33 c33 -29 20 -38
-58 -40 -41 -1 -77 3 -80 8 -14 23 -25 7 -19 -29 8 -51 -8 -81 -45 -81 -33 0
-90 39 -58 40 21 0 42 42 33 65 -5 14 -11 12 -36 -15 -32 -34 -53 -35 -58 -3
-2 14 4 23 17 28 13 4 21 15 21 29 0 22 1 22 133 18 101 -3 136 -8 150 -20z
m-2364 -16 l23 -25 -46 -21 c-25 -11 -46 -25 -46 -30 0 -17 20 -21 55 -11 41
11 48 -4 15 -34 -24 -22 -110 -34 -110 -15 0 10 80 160 85 160 1 0 12 -11 24
-24z m745 14 c14 -5 26 -15 26 -22 0 -6 -24 -35 -54 -64 -63 -61 -110 -77
-151 -50 -13 9 -33 16 -44 16 -57 0 -67 31 -23 73 41 40 191 68 246 47z m1180
-85 c11 -8 28 -13 38 -9 31 10 167 -64 225 -122 29 -29 53 -57 53 -63 0 -18
-47 -13 -87 9 -42 22 -97 26 -140 9 l-28 -11 23 -15 c33 -23 27 -28 -28 -28
-49 0 -50 0 -56 35 -10 51 -15 55 -35 29 -15 -20 -19 -21 -19 -6 0 9 -7 17
-15 17 -20 0 -19 -33 1 -71 14 -27 14 -33 0 -52 -32 -46 -43 -57 -69 -66 -25
-10 -28 -8 -41 24 -9 21 -26 39 -43 46 -51 20 -55 24 -70 62 -28 68 2 106 96
122 39 7 40 6 47 -30 8 -46 29 -40 28 8 -1 34 1 37 31 43 41 7 91 -17 113 -57
20 -33 48 -40 38 -9 -3 11 -9 29 -12 40 -4 12 -2 20 5 20 6 0 11 -4 11 -10 0
-10 52 -40 70 -40 21 0 9 39 -21 65 -29 23 -37 25 -85 20 -46 -6 -53 -5 -63
13 -22 42 -5 56 33 27z m-1090 -55 c7 -49 23 -69 45 -55 7 4 6 16 -5 36 -17
34 -10 69 14 69 24 0 129 -106 155 -155 16 -30 21 -57 20 -110 -1 -108 -14
-198 -32 -221 -14 -18 -17 -48 -15 -216 2 -189 3 -196 29 -251 36 -77 26 -110
-48 -155 -132 -80 -232 -105 -325 -83 -66 16 -104 5 -203 -60 -72 -47 -83 -51
-121 -46 -28 4 -57 -1 -91 -14 -66 -26 -99 -15 -182 63 -46 43 -74 61 -101 65
-30 5 -42 14 -65 52 -50 78 -62 170 -37 267 l13 45 -48 44 c-34 33 -47 52 -47
72 0 37 10 50 43 58 31 8 32 7 12 -31 -13 -25 -13 -29 -1 -32 8 -2 19 -16 26
-32 16 -38 45 -64 65 -57 19 8 19 27 0 63 -26 50 -19 81 23 103 43 23 79 -15
91 -97 3 -25 12 -47 18 -49 21 -7 33 40 21 83 -6 22 -13 62 -15 89 -4 44 -1
55 26 93 17 23 36 42 41 42 17 0 11 -46 -10 -73 -11 -14 -20 -30 -20 -36 0 -6
9 -15 20 -21 13 -7 20 -21 20 -39 0 -37 18 -88 34 -94 29 -11 40 9 28 51 -15
50 -16 162 -1 162 6 0 18 -18 26 -40 11 -27 22 -40 35 -40 10 0 18 6 19 13 3
32 -5 65 -23 101 l-20 40 28 23 c16 13 32 23 36 23 12 0 18 -40 15 -95 -2 -49
-2 -50 30 -53 25 -2 35 2 45 20 9 16 22 23 43 23 24 0 33 7 47 35 22 46 23 64
1 57 -48 -13 -48 -13 -49 23 l0 35 -47 -2 c-40 -3 -47 0 -47 16 0 11 19 40 43
66 40 44 44 46 71 35 16 -6 35 -9 43 -6 16 6 6 36 -12 36 -40 0 -20 72 26 95
58 31 97 9 65 -37 -9 -12 -16 -30 -16 -40 0 -24 27 -23 40 2 11 21 50 28 50
10 0 -6 -17 -29 -39 -53 -47 -52 -63 -81 -55 -101 9 -23 21 -20 40 9 19 30 44
33 44 6 0 -28 -93 -165 -135 -198 -19 -15 -35 -33 -35 -40 0 -21 19 -24 44 -7
25 15 26 15 37 -10 7 -14 18 -26 25 -26 13 0 28 34 21 47 -8 14 12 53 27 53 8
0 23 -17 33 -37 23 -46 43 -54 43 -18 0 17 11 37 31 56 20 19 29 35 25 45 -6
16 -18 16 -73 -1 -37 -12 -39 19 -5 84 27 52 29 61 17 77 -20 26 -18 44 6 70
l21 22 -21 21 c-17 17 -19 25 -11 41 10 19 13 18 49 -20 21 -22 45 -40 54 -40
25 0 29 -17 11 -45 -9 -14 -14 -32 -10 -40 8 -22 37 -18 43 5 10 38 23 20 23
-31 0 -47 2 -50 23 -47 16 2 23 11 25 31 2 15 -1 27 -7 27 -6 0 -11 7 -11 15
0 13 7 15 36 9 33 -6 36 -5 32 17 -2 20 -10 25 -42 27 -38 3 -39 4 -15 16 37
18 31 42 -10 38 -47 -5 -81 5 -81 24 0 10 6 14 15 11 8 -4 17 -2 20 3 7 11
-31 24 -70 25 -42 0 -44 30 -5 78 17 20 35 37 39 37 5 0 11 -23 15 -50z m1583
26 c22 -11 39 -34 61 -86 45 -99 44 -101 -26 -85 -75 18 -105 29 -179 71 -62
34 -62 34 -47 62 7 15 14 36 14 46 0 17 6 18 74 13 40 -3 87 -12 103 -21z
m-2522 -96 c9 -15 -14 -40 -31 -33 -17 6 -19 -28 -2 -45 12 -12 0 -27 -45 -53
-17 -9 -18 -8 -12 11 31 99 71 151 90 120z m163 -31 c24 -23 41 -43 39 -46 -3
-2 -32 -1 -65 3 -54 6 -62 9 -72 35 -27 63 34 68 98 8z m332 -18 c0 -10 -33
-68 -69 -121 -44 -65 -166 -135 -195 -111 -35 29 -18 171 20 171 11 0 14 -8
12 -27 -2 -22 1 -28 17 -28 16 0 19 6 17 28 -3 29 6 35 25 16 16 -16 44 -4 37
16 -3 8 -12 15 -19 15 -35 0 -21 21 22 34 54 16 133 21 133 7z m1174 -43 c9
-12 16 -30 16 -39 0 -8 17 -27 37 -40 49 -32 60 -68 39 -123 -29 -76 -107
-139 -203 -165 -43 -12 -58 -31 -48 -62 8 -23 23 -25 31 -4 4 8 18 15 34 15
15 0 35 9 45 20 24 26 33 25 47 -5 16 -36 28 -31 28 14 0 46 22 71 48 54 13
-8 16 -24 14 -67 -2 -54 -1 -56 23 -56 16 0 25 6 25 15 0 21 16 19 51 -7 23
-17 34 -20 47 -12 25 16 22 58 -4 62 -18 3 -134 102 -134 116 0 3 12 22 26 43
l25 38 72 -4 c68 -3 117 -14 117 -27 0 -3 -13 -3 -28 1 -33 7 -56 -13 -46 -38
6 -17 15 -21 72 -32 23 -5 37 -15 45 -33 6 -15 17 -31 24 -35 7 -4 13 -14 13
-22 0 -25 23 -65 37 -65 16 0 16 5 1 47 -15 41 -4 52 25 25 12 -11 34 -24 50
-27 23 -6 27 -4 27 14 0 24 -24 77 -48 104 -19 22 -10 22 36 -1 74 -36 82 -45
82 -83 0 -38 -38 -89 -66 -89 -14 0 -34 -30 -34 -51 0 -7 10 -9 25 -7 29 6 30
5 9 -27 -27 -41 6 -63 40 -27 11 13 14 28 10 48 -4 23 1 38 25 68 17 21 31 47
31 57 0 27 15 23 28 -6 17 -36 15 -72 -4 -87 -55 -46 -73 -79 -60 -113 7 -20
52 -10 82 17 21 19 22 19 100 -40 107 -81 174 -166 174 -222 0 -16 -2 -30 -4
-30 -3 0 -21 9 -40 21 -51 30 -113 28 -167 -4 -77 -46 -113 -60 -165 -65 -64
-5 -112 10 -171 55 -97 74 -163 88 -329 69 -88 -11 -113 -5 -159 36 -52 45
-67 81 -67 155 1 67 -8 76 -47 51 -26 -16 -45 0 -84 76 -29 56 -32 69 -32 157
0 90 2 100 35 164 28 55 43 72 75 87 67 32 70 34 80 55 29 57 63 69 89 31z
m608 -17 c38 -24 108 -105 108 -125 0 -3 -11 -6 -25 -6 -45 0 -126 63 -170
133 l-17 27 29 0 c16 0 50 -13 75 -29z m145 -2 c51 -20 162 -49 188 -49 19 0
28 -8 36 -27 16 -43 43 -153 37 -158 -2 -2 -29 -7 -59 -11 -45 -5 -58 -3 -73
11 -16 17 -16 18 4 37 28 27 17 38 -38 38 l-47 1 28 22 c41 35 35 47 -25 44
-48 -2 -53 0 -75 32 -23 35 -31 71 -14 71 5 0 22 -5 38 -11z m-2274 -8 c22 -9
23 -13 20 -68 -6 -82 -9 -89 -31 -70 -21 19 -120 57 -149 57 -29 0 -37 15 -21
39 27 44 120 65 181 42z m2082 -95 c30 -28 55 -55 55 -59 0 -5 -24 4 -52 21
-71 39 -200 59 -205 32 -3 -15 34 -33 119 -60 86 -26 43 -41 -46 -16 -28 8
-67 19 -86 23 -28 7 -36 14 -38 35 -2 20 4 30 34 48 85 53 142 47 219 -24z
m-2290 -27 c4 -6 -3 -21 -16 -35 -17 -19 -20 -27 -11 -36 9 -9 19 -7 42 10 39
29 78 44 85 32 3 -5 1 -11 -5 -15 -5 -3 -10 -12 -10 -20 0 -12 5 -12 35 1 60
25 125 14 112 -20 -5 -13 -12 -14 -32 -6 -15 6 -33 10 -41 10 -23 0 -16 -20
11 -30 29 -11 43 -53 25 -75 -26 -31 -70 -11 -70 32 0 23 -45 62 -57 49 -3 -3
2 -21 12 -41 23 -41 15 -55 -14 -24 -14 15 -24 20 -31 13 -12 -12 15 -54 36
-54 8 0 14 -4 14 -10 0 -5 -18 -10 -40 -10 -22 0 -65 -9 -95 -19 l-55 -19 0
21 c0 27 28 216 36 240 6 19 58 24 69 6z m2550 -108 c49 -64 71 -74 143 -65
41 5 56 3 63 -7 5 -8 9 -54 9 -103 l0 -89 -42 7 c-53 9 -63 18 -48 46 24 45
-48 71 -85 30 -12 -13 -31 -20 -57 -20 -36 0 -38 1 -38 33 0 48 -24 74 -96
107 -37 17 -63 34 -59 40 12 19 54 10 87 -19 68 -59 98 -62 98 -11 0 46 -47
80 -111 80 -17 0 -28 4 -25 9 3 5 15 7 25 4 11 -3 28 0 38 6 32 19 56 7 98
-48z m-1300 -70 c-4 -23 -11 -41 -16 -41 -13 0 -11 64 3 78 17 17 21 8 13 -37z
m130 -41 c-8 -49 14 -130 51 -183 20 -31 22 -37 7 -29 -30 17 -62 50 -79 84
-19 36 -15 127 5 152 20 24 23 20 16 -24z m1200 -182 c12 -27 54 -36 70 -15 9
13 18 13 60 2 43 -10 50 -16 50 -36 0 -22 -4 -24 -44 -22 -48 2 -74 11 -158
51 -55 25 -61 42 -15 42 19 0 30 -7 37 -22z m-1221 -152 c68 -67 86 -91 86
-113 0 -31 -24 -73 -43 -73 -8 0 -8 3 1 12 7 7 12 32 12 55 0 34 -6 50 -26 70
-35 35 -53 18 -31 -30 26 -53 5 -103 -53 -127 -16 -7 -38 -27 -49 -45 -25 -44
-61 -61 -139 -68 l-63 -5 58 28 c81 38 179 113 199 151 24 47 15 127 -19 177
-25 35 -32 52 -23 52 2 0 42 -38 90 -84z m1373 23 c19 -7 22 -13 16 -41 -3
-18 -8 -35 -10 -38 -5 -5 -82 81 -83 93 0 7 36 1 77 -14z m-723 -233 c23 -24
59 -53 81 -64 52 -26 66 -43 99 -123 15 -37 47 -90 72 -119 47 -56 55 -91 27
-122 -24 -26 -72 -22 -124 11 -42 26 -80 83 -66 97 3 4 33 -10 67 -31 39 -24
67 -34 78 -30 14 6 11 11 -18 33 -19 15 -61 53 -93 85 -32 31 -67 57 -78 57
-32 0 -74 27 -113 72 -39 45 -45 72 -20 82 29 11 50 6 84 -19 19 -14 48 -25
64 -25 l30 0 -24 17 c-14 9 -47 36 -73 61 -45 41 -51 44 -85 37 -59 -12 -105
-11 -109 2 -3 9 4 11 24 7 15 -3 39 -1 53 5 53 21 81 13 124 -33z m198 -47
c42 -35 52 -39 104 -39 65 0 120 -14 154 -40 35 -26 17 -37 -27 -16 -20 9 -58
20 -84 23 -39 5 -49 2 -57 -13 -11 -21 1 -64 18 -64 17 0 90 -81 90 -101 0
-33 -36 -21 -78 26 -22 25 -56 78 -77 118 -42 81 -68 112 -107 133 -16 8 -28
19 -28 25 0 14 37 -7 92 -52z m-1188 -83 c-51 -22 -74 -28 -74 -18 0 6 17 14
38 20 54 14 72 13 36 -2z m-170 -22 c21 -22 26 -36 26 -75 0 -41 -5 -54 -40
-94 -22 -25 -45 -55 -51 -66 -6 -12 -17 -18 -24 -15 -8 3 -28 -6 -45 -20 -17
-15 -54 -35 -83 -46 -28 -11 -60 -27 -70 -35 -24 -23 -33 -8 -19 30 7 19 12
43 12 55 0 25 29 43 57 36 15 -4 32 5 59 30 21 20 42 36 46 36 4 0 8 7 8 16 0
22 -56 11 -85 -16 -12 -11 -29 -20 -38 -20 -53 0 38 77 102 86 74 10 126 51
107 83 -8 13 -64 -2 -106 -27 -35 -22 -96 -31 -85 -13 3 5 20 13 38 17 17 3
47 19 65 35 43 38 89 39 126 3z m803 -21 c17 -45 23 -176 12 -252 -3 -18 1
-25 16 -27 11 -1 39 -24 62 -51 30 -34 45 -45 53 -37 7 7 0 30 -25 77 -37 69
-45 117 -21 117 35 0 86 -165 86 -275 0 -73 -10 -95 -42 -95 -22 0 -34 22 -43
80 -11 65 -29 96 -111 183 -74 79 -86 104 -60 127 23 18 38 108 26 150 -14 47
-13 50 9 50 14 0 25 -14 38 -47z m301 -50 c17 -13 38 -36 46 -51 19 -38 27
-90 15 -98 -5 -3 -45 12 -87 33 -76 38 -77 40 -83 83 -3 25 -9 57 -13 72 l-8
28 48 -21 c27 -12 64 -32 82 -46z m-748 -104 c0 -46 -42 -210 -80 -312 -22
-57 -20 -77 5 -77 15 0 73 98 101 170 25 65 33 69 22 10 -21 -117 -105 -244
-157 -238 -36 4 -60 84 -60 203 -1 65 -5 97 -17 113 -27 39 -15 65 36 77 34 8
51 20 68 45 13 19 32 46 44 59 26 30 38 15 38 -50z m-697 47 c42 0 47 -10 16
-27 -17 -9 -20 -17 -16 -46 6 -37 -37 -173 -54 -173 -20 0 -20 32 0 71 12 23
19 44 16 48 -4 3 -24 -5 -46 -17 -72 -42 -83 4 -14 61 46 39 58 67 29 67 -9 0
-41 -21 -70 -46 -54 -46 -79 -40 -27 7 62 55 88 70 108 63 11 -4 37 -7 58 -8z
m849 -61 c-7 -62 15 -164 43 -201 31 -41 90 -160 106 -212 11 -37 10 -45 -3
-58 -21 -21 -52 -10 -68 24 -8 16 -14 63 -14 114 -1 69 -5 91 -18 105 -17 16
-18 14 -18 -44 0 -117 -35 -216 -69 -194 -19 12 -17 144 3 241 9 42 16 125 16
190 1 98 3 112 14 97 9 -11 12 -33 8 -62z m145 -72 c26 -59 47 -220 26 -198
-6 6 -29 32 -53 58 l-43 48 18 74 c11 41 21 75 23 75 2 0 15 -26 29 -57z m501
-48 c73 -82 18 -208 -66 -150 -19 14 -21 24 -19 86 l2 69 -42 41 c-24 22 -43
45 -43 50 0 18 137 -60 168 -96z m-1152 29 c-43 -63 -169 -204 -183 -204 -18
0 -16 20 3 41 25 28 9 40 -32 23 -20 -8 -38 -13 -41 -10 -11 10 9 26 43 32 24
4 47 20 74 52 22 24 40 48 40 52 0 4 10 5 23 3 14 -3 34 6 57 25 19 17 37 29
38 27 2 -2 -8 -20 -22 -41z m111 -41 c5 -16 8 -55 8 -88 0 -68 -31 -163 -48
-146 -7 7 -4 22 8 47 21 44 30 106 20 131 -5 14 -13 5 -38 -42 -32 -62 -45
-58 -33 9 6 34 55 116 68 116 4 0 11 -12 15 -27z m685 -103 c35 -27 58 -80 58
-134 0 -52 -21 -73 -84 -83 -41 -6 -44 2 -26 67 5 19 11 65 12 102 2 38 6 68
9 68 4 0 18 -9 31 -20z"/>
</g>
</svg>
